# xmcd CD database file
#
# Track frame offsets:
#	150
#	22775
#	41928
#	53280
#	70043
#	91906
#	116133
#	135477
#	149196
#
# Disc length: 2299 seconds
#
# Revision: 1
# Processed by: cddbd v1.5.1PL2 Copyright (c) Steve Scherf et al.
# Submitted via: CDex 1.50Beta7
#
DISCID=7808f909
DTITLE=Ephel Duath - Pain Necessary To Know
DYEAR=2005
DGENRE=Metal
TTITLE0=New Disorder
TTITLE1=Vector, Third Movement
TTITLE2=Pleonasm
TTITLE3=Few Stars, No Refrain And A Sigarette
TTITLE4=Crystalline Whirl
TTITLE5=I Killed Rebecca
TTITLE6=Vector
TTITLE7=Vector, Second Movement
TTITLE8=Imploding
EXTD=YEAR: 2005
EXTT0=
EXTT1=
EXTT2=
EXTT3=
EXTT4=
EXTT5=
EXTT6=
EXTT7=
EXTT8=
PLAYORDER=
